<svg width="195" height="56" viewBox="0 0 195 56" fill="none" xmlns="http://www.w3.org/2000/svg">
<g clip-path="url(#clip0_1_5566)">
<rect x="0.849609" width="196.622" height="56" fill="white"/>
<g clip-path="url(#clip1_1_5566)">
<path fill-rule="evenodd" clip-rule="evenodd" d="M20.9692 38.267L20.8446 38.3907C19.2318 40.0034 17.3707 40.8721 15.386 40.8721C11.2918 40.8721 8.3136 37.894 8.3136 33.6761C8.3136 29.3325 11.2918 26.3544 15.386 26.3544C17.3707 26.3544 19.2318 27.2231 20.8446 28.8358L20.9692 28.9605L23.5744 25.8587V25.734C21.3413 23.1289 18.7351 21.8871 15.5086 21.8871C12.2821 21.8871 9.30496 23.0042 7.19552 24.9889C4.83772 27.0984 3.72168 30.0765 3.72168 33.6761C3.72168 37.1489 4.83874 40.1271 7.19552 42.2375C9.30496 44.2213 12.2831 45.3394 15.5086 45.3394C18.7341 45.3394 21.3413 44.0976 23.5744 41.4925V41.3688L20.9692 38.267ZM26.4289 44.8416H31.0198V22.2591H26.4289V44.8416ZM48.391 40.0034C47.2739 40.7485 46.0332 41.1194 45.0408 41.1194C43.5518 41.1194 42.8067 40.3744 42.8067 38.5143V26.6017H47.5213V22.2591H42.8067V15.1868L38.3395 17.6682V22.2591H34.3689V26.6017H38.3395V39.382C38.3395 42.8548 40.3252 45.2126 43.4271 45.2126C45.5365 45.3383 46.7772 44.718 47.5213 44.2202H47.646V44.0966L48.762 39.753L48.391 40.0034ZM51.7412 44.8416H56.4557V22.2591H51.7412V44.8416Z" fill="#70707B"/>
<path fill-rule="evenodd" clip-rule="evenodd" d="M172.346 2.77844H171.228L170.981 4.63954C152.493 5.13521 148.771 19.5283 148.771 19.5283C148.771 19.5283 152.122 17.4199 157.085 17.4199C162.173 17.4199 164.157 19.4046 164.157 19.4046C164.157 19.4046 167.382 16.7985 171.85 16.7985C176.317 16.7985 179.542 19.4046 179.542 19.4046C179.542 19.4046 181.526 17.4199 186.491 17.4199C191.578 17.4199 194.929 19.5283 194.929 19.5283C194.929 19.5283 191.082 5.13521 172.594 4.63954L172.346 2.77844Z" fill="#70707B"/>
<path fill-rule="evenodd" clip-rule="evenodd" d="M168.995 45.4631C171.849 45.4631 173.338 43.7267 173.338 40.4991V18.7864C172.718 18.538 171.726 18.538 171.104 18.7864V40.4991C171.104 42.6086 170.236 43.3536 168.995 43.3536C167.632 43.3536 166.761 42.6086 166.761 40.4991C166.761 39.8808 166.266 39.3831 165.768 39.3831C165.148 39.3831 164.652 39.8798 164.652 40.4991C164.653 43.7256 166.142 45.4631 168.995 45.4631Z" fill="#70707B"/>
<path fill-rule="evenodd" clip-rule="evenodd" d="M74.9445 38.3907C73.7037 39.8798 71.7179 41.3688 69.6085 41.3688C66.1347 41.3688 64.2725 38.8853 64.2725 33.0547C64.2725 28.3391 66.01 25.8577 69.3601 25.8577C71.7179 25.8577 73.8274 27.4704 74.9445 28.8358V38.3907ZM79.4107 42.8559V22.2592H74.8198V24.3686C73.579 23.0032 71.3459 21.7625 68.9871 21.7625C64.1489 21.7625 59.6816 25.4857 59.6816 33.1774C59.6816 41.8625 63.6522 45.462 68.7398 45.462C71.2212 45.462 73.0823 44.3439 74.8198 42.8548V43.2279C74.8198 47.8188 73.3307 49.5552 66.754 49.9293L68.3678 53.1547C76.8055 52.9064 79.4107 49.6809 79.4107 42.8559ZM96.0379 26.9747C95.0455 26.478 93.9284 26.106 92.4393 26.106C89.4612 26.106 87.8484 28.0918 87.8484 31.9377V44.8427H83.2575V22.2592H87.8484V24.3686C88.8408 22.8795 90.8266 21.7625 93.1834 21.7625C95.0445 21.7625 96.2862 22.1345 97.2776 22.7548L96.0379 26.9747ZM113.036 33.6751C113.036 37.7693 110.678 41.2421 107.205 41.2421C103.731 41.2421 101.249 38.5133 101.249 33.5514C101.249 28.9595 103.483 25.9813 106.956 25.9813C110.678 25.9824 113.036 28.9595 113.036 33.6751ZM117.627 33.5514C117.627 26.3544 113.16 21.7625 107.205 21.7625C101.249 21.7625 96.6582 26.105 96.6582 33.6751C96.6582 40.7474 101.125 45.462 107.082 45.462C113.16 45.463 117.627 40.9948 117.627 33.5514ZM134.129 44.8417V42.8559C132.89 44.4686 130.532 45.463 128.175 45.463C122.592 45.463 119.737 41.9882 119.737 35.2889V22.2592H124.328V35.1621C124.328 39.753 126.188 41.3678 129.167 41.3678C132.268 41.3678 134.128 39.2584 134.128 35.5352V22.2592H138.719V44.8417H134.129ZM157.705 34.0471C157.705 38.8853 155.843 41.3688 152.493 41.3688C150.135 41.3688 148.026 39.754 146.91 38.3907V28.7122C148.15 27.3478 150.135 25.8587 152.369 25.8587C155.72 25.8577 157.705 28.3391 157.705 34.0471ZM162.296 33.9234C162.296 25.362 158.326 21.7635 153.238 21.7635C150.633 21.7635 148.647 22.8805 146.911 24.3696V22.2602H142.444V53.2804L146.911 50.9227V42.8559C148.276 44.2213 150.509 45.463 152.991 45.463C157.829 45.463 162.296 41.7398 162.296 33.9234Z" fill="#70707B"/>
</g>
</g>
<defs>
<clipPath id="clip0_1_5566">
<rect width="194.133" height="56" fill="white" transform="translate(0.693359)"/>
</clipPath>
<clipPath id="clip1_1_5566">
<rect width="197" height="50.5108" fill="white" transform="translate(0.826172 2.79419)"/>
</clipPath>
</defs>
</svg>
